<?xml version="1.0" encoding="UTF-8"?>
<svg width="64" height="64" viewBox="0 0 64 64" fill="none" xmlns="http://www.w3.org/2000/svg">
<g clip-path="url(#clip0_560_6877)">
<path fill-rule="evenodd" clip-rule="evenodd" d="M32 64C49.6731 64 64 49.6731 64 32C64 14.3269 49.6731 0 32 0C14.3269 0 0 14.3269 0 32C0 49.6731 14.3269 64 32 64Z" fill="#D9DADC"/>
<mask id="mask0_560_6877" style="mask-type:alpha" maskUnits="userSpaceOnUse" x="0" y="0" width="64" height="64">
<path fill-rule="evenodd" clip-rule="evenodd" d="M32 64C49.6731 64 64 49.6731 64 32C64 14.3269 49.6731 0 32 0C14.3269 0 0 14.3269 0 32C0 49.6731 14.3269 64 32 64Z" fill="white"/>
</mask>
<g mask="url(#mask0_560_6877)">
</g>
<path fill-rule="evenodd" clip-rule="evenodd" d="M32 64C49.6731 64 64 49.6731 64 32C64 14.3269 49.6731 0 32 0C14.3269 0 0 14.3269 0 32C0 49.6731 14.3269 64 32 64Z" fill="#EEEEEE"/>
<path d="M50.2725 32.0521L52.5913 32.6262C53.1684 32.7669 53.7113 33.0227 54.1873 33.3781C54.6633 33.7335 55.0628 34.1812 55.3617 34.6946C55.6607 35.208 55.853 35.7764 55.9271 36.3658C56.0013 36.9552 55.9558 37.5535 55.7933 38.125L53.585 46.6491C53.2798 47.7791 52.5386 48.7418 51.5241 49.3256C50.5097 49.9095 49.3049 50.0667 48.1746 49.7629L45.9663 49.1887L50.3829 31.5221C50.3829 26.5437 48.4053 21.7693 44.8851 18.2491C41.3649 14.7289 36.5904 12.7512 31.6121 12.7512C26.6338 12.7512 21.8593 14.7289 18.3391 18.2491C14.8189 21.7693 12.8413 26.5437 12.8413 31.5221L17.2579 49.1887L15.0496 49.7629C13.9192 50.0667 12.7145 49.9095 11.7 49.3256C10.6856 48.7418 9.94434 47.7791 9.63917 46.6491L7.21001 38.125C6.90617 36.9946 7.06344 35.7899 7.64728 34.7754C8.23112 33.761 9.19377 33.0197 10.3238 32.7146L12.6425 32.1404" stroke="black" stroke-width="2" stroke-miterlimit="10"/>
<path d="M7.5 34.5C7.5 33.7 10.8333 33.1667 12.5 33L17.5 49C15.8333 49.5 12.2 50.2 11 49C9.5 47.5 7.5 35.5 7.5 34.5Z" fill="black"/>
<path d="M51.8229 49.7569C51.4153 50.4453 48.2753 49.2058 46.7563 48.5L50.6064 32.1851C52.2953 32.604 55.7783 33.853 56.1994 35.497C56.7258 37.5519 52.3324 48.8965 51.8229 49.7569Z" fill="black"/>
<rect x="22.9492" y="12" width="7" height="7" transform="rotate(45 22.9492 12)" fill="#D9D9D9"/>
<path d="M22.948 8.90629C23.1936 8.90626 23.4304 8.99808 23.6118 9.1637C23.7932 9.32932 23.9061 9.55679 23.9284 9.80142C24.0072 10.6545 24.3668 12.0064 25.1805 13.1772C25.9759 14.319 27.1847 15.2719 29.0222 15.474C29.2632 15.5006 29.4859 15.6151 29.6477 15.7956C29.8095 15.9762 29.8989 16.2101 29.8989 16.4525C29.8989 16.6949 29.8095 16.9288 29.6477 17.1094C29.4859 17.29 29.2632 17.4045 29.0222 17.431C27.1847 17.6331 25.9759 18.586 25.1805 19.7292C24.4938 20.7353 24.0639 21.8943 23.9284 23.1049C23.9048 23.3484 23.7914 23.5744 23.6102 23.7388C23.4291 23.9032 23.1933 23.9943 22.9486 23.9943C22.704 23.9943 22.4681 23.9032 22.287 23.7388C22.1059 23.5744 21.9925 23.3484 21.9688 23.1049C21.8334 21.8943 21.4035 20.7353 20.7167 19.7292C19.9213 18.5873 18.7125 17.6331 16.875 17.4323C16.6328 17.4072 16.4085 17.2932 16.2455 17.1124C16.0824 16.9315 15.9922 16.6967 15.9922 16.4532C15.9922 16.2097 16.0824 15.9748 16.2455 15.794C16.4085 15.6131 16.6328 15.4992 16.875 15.474C18.7125 15.2719 19.9213 14.319 20.7167 13.1772C21.5305 12.0064 21.8901 10.6545 21.9688 9.80142C21.9911 9.55701 22.1038 9.32973 22.285 9.16414C22.4661 8.99855 22.7026 8.90659 22.948 8.90629V8.90629ZM20.0605 16.4532C20.9624 17.0012 21.7374 17.7349 22.3337 18.6057C22.5673 18.9417 22.7708 19.2882 22.948 19.636C23.1265 19.2882 23.3299 18.9417 23.5648 18.6057C24.1605 17.7352 24.9345 17.0015 25.8355 16.4532C24.9344 15.9049 24.1604 15.1711 23.5648 14.3007C23.3361 13.9716 23.13 13.6274 22.948 13.2704C22.7708 13.6182 22.5673 13.9647 22.3337 14.3007C21.7374 15.1714 20.9624 15.9052 20.0605 16.4532V16.4532ZM27.7832 7.99017C29.8872 7.32342 30.9778 5.65917 31.4556 4.27579C31.5081 4.12617 31.9885 4.12617 32.041 4.27579C32.5187 5.65917 33.6094 7.32342 35.7133 7.99017C35.8643 8.03742 35.8643 8.46267 35.7133 8.50992C33.6094 9.17667 32.5187 10.8396 32.041 12.2243C31.9885 12.3739 31.5081 12.3739 31.4556 12.2243C30.9778 10.8396 29.8872 9.17667 27.7832 8.50992C27.6323 8.46267 27.6323 8.03742 27.7832 7.99017Z" fill="black"/>
<path d="M26.707 25.75C26.707 25.5069 26.6061 25.2738 26.4263 25.1019C26.2466 24.93 26.0029 24.8334 25.7487 24.8334C25.4945 24.8334 25.2508 24.93 25.0711 25.1019C24.8913 25.2738 24.7904 25.5069 24.7904 25.75V42.25C24.7904 42.4932 24.8913 42.7263 25.0711 42.8982C25.2508 43.0701 25.4945 43.1667 25.7487 43.1667C26.0029 43.1667 26.2466 43.0701 26.4263 42.8982C26.6061 42.7263 26.707 42.4932 26.707 42.25V25.75ZM22.8737 31.25C22.8737 31.0069 22.7727 30.7738 22.593 30.6019C22.4133 30.43 22.1695 30.3334 21.9154 30.3334C21.6612 30.3334 21.4174 30.43 21.2377 30.6019C21.058 30.7738 20.957 31.0069 20.957 31.25V36.75C20.957 36.9932 21.058 37.2263 21.2377 37.3982C21.4174 37.5701 21.6612 37.6667 21.9154 37.6667C22.1695 37.6667 22.4133 37.5701 22.593 37.3982C22.7727 37.2263 22.8737 36.9932 22.8737 36.75V31.25ZM29.582 28.5C29.8362 28.5 30.08 28.5966 30.2597 28.7685C30.4394 28.9404 30.5404 29.1736 30.5404 29.4167V38.5834C30.5404 38.8265 30.4394 39.0596 30.2597 39.2316C30.08 39.4035 29.8362 39.5 29.582 39.5C29.3279 39.5 29.0841 39.4035 28.9044 39.2316C28.7247 39.0596 28.6237 38.8265 28.6237 38.5834V29.4167C28.6237 29.1736 28.7247 28.9404 28.9044 28.7685C29.0841 28.5966 29.3279 28.5 29.582 28.5V28.5ZM34.3737 32.1667C34.3737 31.9236 34.2727 31.6904 34.093 31.5185C33.9133 31.3466 33.6695 31.25 33.4154 31.25C33.1612 31.25 32.9174 31.3466 32.7377 31.5185C32.558 31.6904 32.457 31.9236 32.457 32.1667V35.8334C32.457 36.0765 32.558 36.3096 32.7377 36.4816C32.9174 36.6535 33.1612 36.75 33.4154 36.75C33.6695 36.75 33.9133 36.6535 34.093 36.4816C34.2727 36.3096 34.3737 36.0765 34.3737 35.8334V32.1667ZM37.2487 27.5834C37.5029 27.5834 37.7466 27.68 37.9263 27.8519C38.1061 28.0238 38.207 28.2569 38.207 28.5V39.5C38.207 39.7432 38.1061 39.9763 37.9263 40.1482C37.7466 40.3201 37.5029 40.4167 37.2487 40.4167C36.9945 40.4167 36.7508 40.3201 36.5711 40.1482C36.3913 39.9763 36.2904 39.7432 36.2904 39.5V28.5C36.2904 28.2569 36.3913 28.0238 36.5711 27.8519C36.7508 27.68 36.9945 27.5834 37.2487 27.5834V27.5834ZM42.0404 31.25C42.0404 31.0069 41.9394 30.7738 41.7597 30.6019C41.58 30.43 41.3362 30.3334 41.082 30.3334C40.8279 30.3334 40.5841 30.43 40.4044 30.6019C40.2247 30.7738 40.1237 31.0069 40.1237 31.25V36.75C40.1237 36.9932 40.2247 37.2263 40.4044 37.3982C40.5841 37.5701 40.8279 37.6667 41.082 37.6667C41.3362 37.6667 41.58 37.5701 41.7597 37.3982C41.9394 37.2263 42.0404 36.9932 42.0404 36.75V31.25Z" fill="black"/>
</g>
<defs>
<clipPath id="clip0_560_6877">
<rect width="64" height="64" fill="white"/>
</clipPath>
</defs>
</svg>
