<?xml version="1.0" encoding="UTF-8"?>
<svg width="29px" height="20px" viewBox="0 0 29 20" version="1.1" xmlns="http://www.w3.org/2000/svg" xmlns:xlink="http://www.w3.org/1999/xlink">
    <!-- Generator: Sketch 52.3 (67297) - http://www.bohemiancoding.com/sketch -->
    <title>amex_card</title>
    <desc>Created with Sketch.</desc>
    <defs>
        <radialGradient cx="16.6013824%" cy="2.610375%" fx="16.6013824%" fy="2.610375%" r="136.391087%" gradientTransform="translate(0.166014,0.026104),scale(0.703325,1.000000),translate(-0.166014,-0.026104)" id="radialGradient-1">
            <stop stop-color="#9DD5F6" offset="0%"></stop>
            <stop stop-color="#98D3F5" offset="7.11%"></stop>
            <stop stop-color="#89CEF3" offset="15.75%"></stop>
            <stop stop-color="#70C6EF" offset="25.16%"></stop>
            <stop stop-color="#4EBBEA" offset="35.14%"></stop>
            <stop stop-color="#23ADE3" offset="45.46%"></stop>
            <stop stop-color="#0DA6E0" offset="50%"></stop>
            <stop stop-color="#2E77BC" offset="100%"></stop>
        </radialGradient>
    </defs>
    <g id="Page-1" stroke="none" stroke-width="1" fill="none" fill-rule="evenodd">
        <g id="Desktop" transform="translate(-1100.000000, -2634.000000)" fill-rule="nonzero">
            <g id="Plans" transform="translate(305.000000, 2245.000000)">
                <g id="Student" transform="translate(702.000000, 161.000000)">
                    <g transform="translate(0.000000, 78.000000)" id="logos">
                        <g transform="translate(29.000000, 150.000000)">
                            <g id="amex_card" transform="translate(64.000000, 0.000000)">
                                <path d="M25.2916364,0.4 L2.81018182,0.4 C1.47735273,0.4 0.401454545,1.472 0.401454545,2.8 L0.401454545,17.2 C0.401454545,18.528 1.47735273,19.6 2.81018182,19.6 L25.2916364,19.6 C26.6244655,19.6 27.7003636,18.528 27.7003636,17.2 L27.7003636,2.8 C27.7003636,1.472 26.6244655,0.4 25.2916364,0.4 Z" id="Shape" fill="url(#radialGradient-1)"></path>
                                <path d="M25.6930909,0.8 C26.5762909,0.8 27.2989091,1.52 27.2989091,2.4 L27.2989091,17.6 C27.2989091,18.48 26.5762909,19.2 25.6930909,19.2 L2.40872727,19.2 C1.52552727,19.2 0.802909091,18.48 0.802909091,17.6 L0.802909091,2.4 C0.802909091,1.52 1.52552727,0.8 2.40872727,0.8 L25.6930909,0.8 Z M25.6930909,0 L2.40872727,0 C1.07589818,0 0,1.072 0,2.4 L0,17.6 C0,18.928 1.07589818,20 2.40872727,20 L25.6930909,20 C27.02592,20 28.1018182,18.928 28.1018182,17.6 L28.1018182,2.4 C28.1018182,1.072 27.02592,0 25.6930909,0 Z" id="Shape" fill="#E7E7E7"></path>
                                <g id="Layer_1_1_" transform="translate(2.328436, 7.040000)" fill="#FFFFFF">
                                    <g id="Group">
                                        <polygon id="Shape" points="3.24375273 3.24 4.62475636 3.24 3.93425455 1.56"></polygon>
                                        <polygon id="Shape" points="14.0589382 1.72 14.0589382 2.488 16.2910255 2.488 16.2910255 3.352 14.0589382 3.352 14.0589382 4.2 16.5559855 4.2 17.7121745 2.944 16.6121891 1.72"></polygon>
                                        <path d="M22.8989673,0 L19.2377018,0 L18.4026764,0.904 L17.6238545,0 L12.9268364,0 L12.3487418,0 L10.0604509,0 L9.39403636,1.52 L8.71156364,0 L5.58824727,0 L5.58824727,0.704 L5.24299636,0 L2.60142545,0 L0.0401454545,5.904 L3.09922909,5.904 L3.49265455,4.96 L4.35979636,4.96 L4.74519273,5.904 L8.14952727,5.904 L8.14952727,5.192 L8.45463273,5.92 L10.2210327,5.92 L10.5261382,5.192 L10.5261382,5.92 L12.3085964,5.92 L17.5034182,5.92 L18.3625309,5 L19.1814982,5.92 L22.7785309,5.92 L20.1289309,2.984 L22.8989673,0 Z M12.3246545,5.064 L11.2889018,5.064 L11.2889018,1.744 L9.81957818,5.064 L8.91229091,5.064 L7.44296727,1.744 L7.44296727,5.064 L5.37949091,5.064 L4.99409455,4.12 L2.87441455,4.12 L2.48098909,5.064 L1.37297455,5.064 L3.18754909,0.832 L4.69701818,0.832 L6.42327273,4.84 L6.42327273,0.832 L8.07726545,0.832 L9.41009455,3.704 L10.6305164,0.832 L12.3246545,0.832 L12.3246545,5.064 Z M20.9398691,5.08 L19.6230982,5.08 L18.37056,3.68 L17.0778764,5.08 L13.0553018,5.08 L13.0553018,0.84 L17.1421091,0.84 L18.3946473,2.232 L19.6873309,0.84 L21.02016,0.84 L19.0450036,2.96 L20.9398691,5.08 Z" id="Shape"></path>
                                    </g>
                                </g>
                            </g>
                        </g>
                    </g>
                </g>
            </g>
        </g>
    </g>
</svg>