<?xml version="1.0" encoding="UTF-8"?>
<svg width="29px" height="20px" viewBox="0 0 29 20" version="1.1" xmlns="http://www.w3.org/2000/svg" xmlns:xlink="http://www.w3.org/1999/xlink">
    <!-- Generator: Sketch 52.3 (67297) - http://www.bohemiancoding.com/sketch -->
    <title>mastercard_card</title>
    <desc>Created with Sketch.</desc>
    <g id="Page-1" stroke="none" stroke-width="1" fill="none" fill-rule="evenodd">
        <g id="Desktop" transform="translate(-1068.000000, -2634.000000)" fill-rule="nonzero">
            <g id="Plans" transform="translate(305.000000, 2245.000000)">
                <g id="Student" transform="translate(702.000000, 161.000000)">
                    <g transform="translate(0.000000, 78.000000)" id="logos">
                        <g transform="translate(29.000000, 150.000000)">
                            <g id="mastercard_card" transform="translate(32.000000, 0.000000)">
                                <g id="Group">
                                    <path d="M25.6930909,20 L2.40872727,20 C1.07589818,20 0,18.928 0,17.6 L0,2.4 C0,1.072 1.07589818,0 2.40872727,0 L25.6930909,0 C27.02592,0 28.1018182,1.072 28.1018182,2.4 L28.1018182,17.6 C28.1018182,18.928 27.02592,20 25.6930909,20 Z" id="Shape" fill="#F8F8F8"></path>
                                    <path d="M25.6930909,0.8 C26.5762909,0.8 27.2989091,1.52 27.2989091,2.4 L27.2989091,17.6 C27.2989091,18.48 26.5762909,19.2 25.6930909,19.2 L2.40872727,19.2 C1.52552727,19.2 0.802909091,18.48 0.802909091,17.6 L0.802909091,2.4 C0.802909091,1.52 1.52552727,0.8 2.40872727,0.8 L25.6930909,0.8 Z M25.6930909,0 L2.40872727,0 C1.07589818,0 0,1.072 0,2.4 L0,17.6 C0,18.928 1.07589818,20 2.40872727,20 L25.6930909,20 C27.02592,20 28.1018182,18.928 28.1018182,17.6 L28.1018182,2.4 C28.1018182,1.072 27.02592,0 25.6930909,0 Z" id="Shape" fill="#E7E7E7"></path>
                                </g>
                                <g id="g3125" transform="translate(5.742110, 4.858099)">
                                    <g id="g3115">
                                        <g id="g3110">
                                            <path d="M16.5976981,5.14307469 C16.5976981,7.97225189 14.3046593,10.2569826 11.4749518,10.2569826 C8.64524429,10.2569826 6.34244784,7.97225189 6.34244784,5.14307469 C6.34244784,2.3138975 8.63548668,0.0194445168 11.4651942,0.0194445168 C14.3046593,0.0194445168 16.5976981,2.3138975 16.5976981,5.14307469 Z" id="path2997" fill="#F79F1A"></path>
                                            <path d="M10.2747655,5.14307469 C10.2747655,7.97225189 7.98172667,10.2569826 5.15201917,10.2569826 C2.32231167,10.2569826 0.0292728362,7.96252963 0.0292728362,5.14307469 C0.0292728362,2.32361976 2.32231167,0.0194445168 5.15201917,0.0194445168 C7.98172667,0.0194445168 10.2747655,2.3138975 10.2747655,5.14307469 Z" id="path2995" fill="#EA001B"></path>
                                            <path d="M8.30372787,1.11805972 C7.10354158,2.05139652 6.34244784,3.50973528 6.34244784,5.14307469 C6.34244784,6.7764141 7.1132992,8.23475286 8.30372787,9.16808967 C9.50391415,8.23475286 10.2650079,6.7764141 10.2650079,5.14307469 C10.2650079,3.50973528 9.50391415,2.05139652 8.30372787,1.11805972 Z" id="path2999" fill="#FF5F01"></path>
                                        </g>
                                    </g>
                                </g>
                            </g>
                        </g>
                    </g>
                </g>
            </g>
        </g>
    </g>
</svg>