<?xml version="1.0" encoding="UTF-8"?>
<svg width="29px" height="20px" viewBox="0 0 29 20" version="1.1" xmlns="http://www.w3.org/2000/svg" xmlns:xlink="http://www.w3.org/1999/xlink">
    <!-- Generator: Sketch 52.3 (67297) - http://www.bohemiancoding.com/sketch -->
    <title>visa_card</title>
    <desc>Created with Sketch.</desc>
    <g id="Page-1" stroke="none" stroke-width="1" fill="none" fill-rule="evenodd">
        <g id="Desktop" transform="translate(-1036.000000, -2634.000000)" fill-rule="nonzero">
            <g id="Plans" transform="translate(305.000000, 2245.000000)">
                <g id="Student" transform="translate(702.000000, 161.000000)">
                    <g transform="translate(0.000000, 78.000000)" id="logos">
                        <g transform="translate(29.000000, 150.000000)">
                            <g id="visa_card">
                                <g id="Group">
                                    <path d="M25.6930909,20 L2.40872727,20 C1.07589818,20 0,18.928 0,17.6 L0,2.4 C0,1.072 1.07589818,0 2.40872727,0 L25.6930909,0 C27.02592,0 28.1018182,1.072 28.1018182,2.4 L28.1018182,17.6 C28.1018182,18.928 27.02592,20 25.6930909,20 Z" id="Shape" fill="#F8F8F8"></path>
                                    <path d="M25.6930909,0.8 C26.5762909,0.8 27.2989091,1.52 27.2989091,2.4 L27.2989091,17.6 C27.2989091,18.48 26.5762909,19.2 25.6930909,19.2 L2.40872727,19.2 C1.52552727,19.2 0.802909091,18.48 0.802909091,17.6 L0.802909091,2.4 C0.802909091,1.52 1.52552727,0.8 2.40872727,0.8 L25.6930909,0.8 Z M25.6930909,0 L2.40872727,0 C1.07589818,0 0,1.072 0,2.4 L0,17.6 C0,18.928 1.07589818,20 2.40872727,20 L25.6930909,20 C27.02592,20 28.1018182,18.928 28.1018182,17.6 L28.1018182,2.4 C28.1018182,1.072 27.02592,0 25.6930909,0 Z" id="Shape" fill="#E7E7E7"></path>
                                </g>
                                <path d="M11.7947345,6.568 L10.3173818,13.4 L12.09984,13.4 L13.5771927,6.568 C13.5771927,6.568 11.7947345,6.568 11.7947345,6.568 Z M23.2763345,6.568 L21.7588364,6.568 C21.4216145,6.568 21.1245382,6.768 21.0041018,7.064 L18.3223855,13.4 L20.1931636,13.4 L20.5625018,12.376 L22.8507927,12.376 L23.0675782,13.4 L24.7215709,13.4 L23.2763345,6.568 Z M21.0843927,10.976 L22.0157673,8.416 L22.5537164,10.976 L21.0843927,10.976 Z M9.15316364,6.568 L7.29844364,11.216 L6.54370909,7.264 C6.44736,6.816 6.11013818,6.56 5.71671273,6.56 L2.69777455,6.56 L2.65762909,6.76 C3.28389818,6.896 3.98242909,7.112 4.416,7.336 C4.67293091,7.488 4.75322182,7.608 4.83351273,7.944 L6.25466182,13.408 L8.13346909,13.408 L11.0319709,6.576 L9.15316364,6.576 L9.15316364,6.568 Z M15.9216873,8.472 C15.9216873,8.232 16.16256,7.96 16.6764218,7.904 C16.9333527,7.88 17.6399127,7.848 18.4347927,8.216 L18.7479273,6.76 C18.3143564,6.608 17.7603491,6.464 17.0859055,6.464 C15.3275345,6.464 14.0830255,7.392 14.0669673,8.728 C14.0509091,9.712 14.9581964,10.264 15.6246109,10.592 C16.3151127,10.928 16.5559855,11.144 16.5479564,11.44 C16.5479564,11.896 15.9939491,12.104 15.4800873,12.112 C14.5888582,12.128 14.0589382,11.872 13.6494545,11.68 L13.3282909,13.176 C13.7458036,13.368 14.5165964,13.528 15.3195055,13.544 C17.1983127,13.544 18.4187345,12.624 18.4347927,11.208 C18.4187345,9.376 15.9056291,9.264 15.9216873,8.472 Z" id="Shape" fill="#0F2496"></path>
                            </g>
                        </g>
                    </g>
                </g>
            </g>
        </g>
    </g>
</svg>