<?xml version="1.0" encoding="UTF-8"?>
<svg width="350" height="251" viewBox="0 0 350 251" xmlns="http://www.w3.org/2000/svg"><g fill="none" fill-rule="nonzero"><path d="M316.076 6H35.023C18.966 6 6 18.9 6 34.8v182.4C6 233.1 18.966 246 35.023 246h280.954C332.034 246 345 233.1 345 217.2V34.8C345.1 18.9 332.134 6 316.076 6z" fill="#231F20"/><path d="M77.262 97.022a31.558 31.558 0 019.462-1.437c14.439 0 26.484 9.619 29.246 22.402l20.463-3.915C131.735 92.352 111.268 76 86.723 76c-5.62 0-11.028.859-16.08 2.44l6.619 18.582z" fill="#FFDC00"/><path d="M53.118 159.217l13.835-14.671c-6.176-5.131-10.073-12.621-10.073-20.967 0-8.344 3.893-15.832 10.067-20.96L53.105 87.95C42.612 96.665 36 109.396 36 123.579c0 14.186 6.62 26.923 17.118 35.638" fill="#1C99D5"/><path d="M115.963 129.196c-2.773 12.772-14.811 22.377-29.24 22.377-3.31 0-6.498-.507-9.47-1.442l-6.627 18.58a53.663 53.663 0 0016.097 2.446c24.526 0 44.985-16.328 49.698-38.028l-20.458-3.933z" fill="#EE4123"/><path d="M204.541 142.324c-3.379 3.084-7.962 4.962-13.021 4.895a18.938 18.938 0 01-9.41-2.652l-6.774 10.125c4.64 2.75 10.108 4.377 16.002 4.462 8.583.12 16.406-3.043 22.094-8.266l-8.89-8.564zM173.694 131.916a14.49 14.49 0 01-.11-2.058c.162-9.447 8.449-16.982 18.511-16.828 5.476.07 10.34 2.42 13.626 6.064l-32.027 12.822zm18.585-30.833c-17.08-.245-31.152 12.552-31.41 28.585-.1 6.009 1.75 11.628 5.006 16.298l56.066-22.477c-3.159-12.669-15.167-22.193-29.662-22.406zM239.526 87.999v56.066l10.371 4.032-4.906 11.057-10.258-4c-2.304-.936-3.865-2.367-5.053-3.982-1.136-1.648-1.981-3.907-1.981-6.954v-56.22h11.827zM276.914 113.906a19.227 19.227 0 015.775-.875c8.813 0 16.164 5.871 17.847 13.673l12.494-2.387c-2.866-13.261-15.362-23.244-30.341-23.244-3.435 0-6.733.527-9.814 1.492l4.039 11.341zM262.178 151.867l8.441-8.953c-3.772-3.13-6.144-7.703-6.144-12.8 0-5.092 2.372-9.662 6.14-12.792l-8.446-8.953c-6.404 5.32-10.44 13.094-10.44 21.745 0 8.66 4.039 16.432 10.45 21.753M300.537 133.545c-1.693 7.794-9.044 13.659-17.849 13.659-2.02 0-3.965-.31-5.781-.88l-4.045 11.338a32.728 32.728 0 009.826 1.496c14.966 0 27.457-9.97 30.338-23.213l-12.489-2.4z" fill="#FEFEFE"/><path d="M320 11c11 0 20 9 20 20v190c0 11-9 20-20 20H30c-11 0-20-9-20-20V31c0-11 9-20 20-20h290zm0-10H30C13.4 1 0 14.4 0 31v190c0 16.6 13.4 30 30 30h290c16.6 0 30-13.4 30-30V31c0-16.6-13.4-30-30-30z" fill="#E7E7E7"/></g></svg>
