<?xml version="1.0" encoding="UTF-8"?>
<svg width="350" height="251" viewBox="0 0 350 251" xmlns="http://www.w3.org/2000/svg" xmlns:xlink="http://www.w3.org/1999/xlink"><defs><path id="a" d="M.857 0h298v71h-298z"/></defs><g fill="none" fill-rule="evenodd"><path d="M315.9 6H34.1C18 6 5 18.9 5 34.8v182.4C5 233.1 18 246 34.1 246h281.7c16.1 0 29.1-12.9 29.1-28.8V34.8C345 18.9 332 6 315.9 6z" fill="#AA131A" fill-rule="nonzero"/><g transform="translate(27.143 92)"><mask id="b" fill="#fff"><use xlink:href="#a"/></mask><path d="M65.235 9.08c1.562-1.072 3.576-5.954 1.275-7.987-.73-.644-1.943-.838-3.648-.541-1.573.255-2.487.796-3.104 1.624-.986 1.348-1.89 5.403-.36 6.905 1.49 1.47 4.84.674 5.837 0zM42.978 1.094c-1.11 7.232-2.374 14.33-3.648 21.42-8.118.091-16.41.398-24.251-.184 1.48-6.936 2.548-14.29 4.018-21.236h-8.755C7.208 18.794 4.35 36.772.857 54.116h8.93c1.408-8.897 2.723-17.886 4.562-26.333 7.625-.194 16.75-.51 24.077.184-1.51 8.784-3.34 17.252-4.748 26.149h8.94c2.877-17.967 5.899-35.771 9.485-53.023h-9.125zm126.393 15.25c-6.946-2.799-12.424 1.93-14.951 6.353.565-1.96.801-4.27 1.274-6.353h-6.936c-1.696 13.085-4.193 25.362-6.567 37.773h7.84c1.1-7.365 1.583-17.293 4.019-24.341 1.952-5.618 7.049-10.419 14.406-7.804.103-2.073.7-3.657.915-5.628zm4.378 28.876c-.72-1.87-.915-4.934-.73-7.262.4-5.25 2.322-11.645 5.282-14.535 4.1-3.984 12.166-3.33 18.61-1.093.195-2.156.626-4.086.914-6.17-10.564-1.716-20.583-.643-25.906 4.903-5.2 5.434-8.61 17.926-6.196 25.781 2.816 9.203 15.476 9.704 25.72 6.18.453-1.85.689-3.912 1.09-5.812-5.6 2.9-16.298 4.402-18.784-1.992zm88.084-28.692c-6.926-3.453-12.7 2.339-14.951 5.802.637-1.778.678-4.158 1.274-5.986h-6.936a558.009 558.009 0 01-6.741 37.773h8.015c.051-5.005 1.048-8.713 1.83-13.626 1.674-10.48 4.14-21.971 16.42-18.519.4-1.777.575-3.78 1.09-5.444zM57.21 16.343c-.216.03-.195.286-.185.541-1.726 12.87-4.059 25.138-6.566 37.232h7.84c1.891-12.952 4.049-25.638 6.751-37.773h-7.84zm68.94-.725c-5.672.439-10.46 2.053-13.861 5.628-4.183 4.382-7.563 14.065-6.567 22.88 1.408 12.574 17.14 12.124 29.728 9.08.216-2.206.75-4.095 1.09-6.169-5.18 1.92-14.181 4.617-19.514 1.267-4.028-2.533-4.049-8.958-2.734-14.535 8.457-.256 17.243-.215 25.71 0 .545-3.943 2.087-8.254.73-12.155-1.767-5.159-8.118-6.497-14.581-5.996zm7.471 13.8h-18.414c.575-4.22 4.388-8.846 10.4-9.081 5.64-.215 9.69 2.063 8.014 9.08zM96.423 16.342c-6.639-2.482-14.726.48-18.24 3.3.02.122-.082.142-.185.152l.185-.153v-.03c.062-1.216.483-2.054.545-3.269h-6.741C69.17 34.974 65.83 53.084 62.317 71h7.84c1.13-6.976 1.891-14.351 3.464-20.878 1.798 6.864 13.481 5.556 18.424 2.9 10.184-5.474 18.034-31.572 4.378-36.679zm-6.207 30.694c-4.193 4.413-14.51 4.351-15.321-3.095-.35-3.238.863-6.629 1.47-9.98.605-3.39 1.037-6.649 1.633-9.631 4.13-5.026 16.277-5.629 17.51 2.727 1.069 7.252-1.808 16.302-5.292 19.98zM291.006 0c-.657 5.873-1.562 11.512-2.723 16.884-19.246-6.057-31.043 8.029-30.827 25.424.04 3.36.627 6.7 2.733 9.08 3.648 4.107 14.068 5.087 19.34 1.635 1.017-.674 2.054-1.88 2.733-2.728.503-.623 1.315-2.288 1.459-1.818-.278 1.85-.689 3.555-.73 5.639h7.111c1.367-19.581 5.61-36.302 8.755-54.116h-7.85zm-17.5 49.938c-5.281.112-7.902-3.146-8.025-8.54-.216-9.447 3.956-19.938 12.403-20.877 3.936-.44 6.782.47 9.66 1.45-2.652 10.613-1.686 27.701-14.037 27.967zM205.84 16.343c-.38 2.155-.976 4.106-1.449 6.17 4.624-1.155 19.031-4.7 20.418 1.46.463 2.043-.329 4.208-.904 5.802-13.04-1.226-23.655.93-26.45 10.173-1.87 6.19.205 12.288 4.192 13.984 7.677 3.279 17.017-.47 20.254-5.628-.35 1.787-.657 3.575-.555 5.812h6.752c.071-6.446 1.007-11.645 1.993-17.436.853-4.934 2.456-9.816 2.189-14.168-.565-9.959-17.16-6.435-26.44-6.169zm12.763 30.5c-4.028 3.943-15.383 5.056-14.212-4.351.956-7.824 9.505-9.48 18.784-8.356-.698 4.28-1.49 9.704-4.572 12.707z" fill="#FFFFFE" mask="url(#b)"/></g><path d="M320 11c11 0 20 9 20 20v190c0 11-9 20-20 20H30c-11 0-20-9-20-20V31c0-11 9-20 20-20h290zm0-10H30C13.4 1 0 14.4 0 31v190c0 16.6 13.4 30 30 30h290c16.6 0 30-13.4 30-30V31c0-16.6-13.4-30-30-30z" fill="#E7E7E7" fill-rule="nonzero"/></g></svg>
